<?xml version="1.0" encoding="UTF-8"?><svg id="Lager_2" xmlns="http://www.w3.org/2000/svg" viewBox="0 0 311.92 66.87"><g id="Lager_1-2"><rect x="68.04" y="15.26" width="8.38" height="36.94"/><rect x="68.04" y="1.38" width="8.38" height="8.05"/><path d="M84.44,23.97c-1.51,2.83-2.28,6.01-2.28,9.47s.77,6.64,2.28,9.47c1.51,2.82,3.68,5.1,6.44,6.78,2.76,1.67,6.03,2.52,9.74,2.52h11.19v-6.81h-10.82c-3.19,0-5.71-1.11-7.49-3.29-1.71-2.1-2.66-5.17-2.66-8.67,0-2.29.43-4.56,1.17-6.24.78-1.77,1.94-3.17,3.44-4.19,1.5-1.01,3.34-1.53,5.46-1.53h10.9v-6.81h-11.19c-3.7,0-6.98.85-9.74,2.52-2.76,1.67-4.93,3.95-6.44,6.78"/><path d="M57,21.48h7.12v-6.22h-8.37c-2.78,0-5.24.52-7.29,1.54-2.04,1.02-3.62,2.48-4.68,4.35-1.07,1.88-1.61,4.13-1.61,6.7v24.35h8.31v-23.76c0-2.09.6-3.79,1.79-5.05,1.19-1.27,2.79-1.91,4.75-1.91"/><path d="M34.39,42.9c1.51-2.83,2.28-6.01,2.28-9.46s-.77-6.64-2.28-9.47c-1.51-2.82-3.68-5.1-6.44-6.78-2.76-1.67-6.03-2.52-9.74-2.52h-9.84v6.81h9.47c3.19,0,5.71,1.11,7.49,3.29,1.71,2.1,2.66,5.17,2.66,8.67,0,2.29-.43,4.56-1.17,6.24-.78,1.77-1.94,3.17-3.44,4.19-1.5,1.01-3.34,1.53-5.46,1.53h-9.54v-23.91H0v45.39h8.38v-14.67s9.83,0,9.83,0c3.7,0,6.98-.85,9.74-2.52,2.76-1.67,4.92-3.95,6.44-6.78"/><path d="M221.23,45.39h8.38V0h-8.38v14.67h-8.99c-3.7,0-6.98.85-9.74,2.52-2.76,1.67-4.93,3.95-6.44,6.78-1.51,2.83-2.28,6.01-2.28,9.47s.77,6.64,2.28,9.47c1.51,2.82,3.68,5.1,6.44,6.78,2.76,1.67,6.03,2.52,9.74,2.52h8.99v-6.81h-8.62c-3.19,0-5.71-1.1-7.49-3.29-1.71-2.1-2.66-5.18-2.66-8.67,0-2.29.43-4.56,1.17-6.24.78-1.76,1.94-3.17,3.44-4.19,1.5-1.01,3.34-1.53,5.46-1.53h8.69v23.91Z"/><path d="M269.3,60.98c1.07-1.88,1.61-4.13,1.61-6.7v-.94h0v-31.86h-8.38v23.9h-8.69c-2.12,0-3.96-.51-5.46-1.53-1.5-1.01-2.65-2.42-3.44-4.19-.75-1.67-1.17-3.95-1.17-6.24,0-3.49.94-6.57,2.66-8.67,1.78-2.18,4.3-3.29,7.49-3.29h8.62s0-6.81,0-6.81h-8.99c-3.71,0-6.98.85-9.74,2.52-2.76,1.67-4.93,3.95-6.44,6.78-1.51,2.83-2.28,6.01-2.28,9.47s.77,6.64,2.28,9.47c1.51,2.82,3.68,5.1,6.44,6.78,2.76,1.67,6.03,2.52,9.74,2.52h8.98v1.49c0,2.09-.6,3.79-1.79,5.05-1.19,1.27-2.79,1.91-4.75,1.91h-14.73v6.22h16.05c2.78,0,5.24-.52,7.29-1.54,2.04-1.02,3.62-2.48,4.68-4.34"/><path d="M123.27,29.1c.19-.98.46-1.89.8-2.68.79-1.84,1.93-3.27,3.41-4.23,1.48-.96,3.3-1.45,5.42-1.45,2.73,0,4.93.79,6.54,2.34,1.6,1.55,2.52,3.59,2.72,6.06l.03.37h-19.01l.08-.41ZM117.07,24.1c-1.35,2.83-2.03,5.95-2.03,9.26s.74,6.3,2.21,9.18c1.46,2.87,3.61,5.23,6.37,6.99,2.76,1.77,6.1,2.66,9.95,2.66h11.12v-6.81h-11.12c-2.12,0-4.02-.52-5.64-1.56-1.62-1.03-2.88-2.48-3.74-4.29-.48-1-.82-2.14-1.04-3.39l-.07-.4h27.47v-3.97c-.1-2.79-.77-5.69-1.99-8.14-1.32-2.65-3.31-4.83-5.92-6.48-2.61-1.65-5.89-2.48-9.73-2.48s-7.08.87-9.77,2.59c-2.68,1.72-4.73,4.02-6.07,6.84"/><path d="M162.53,29.1c.19-.98.46-1.89.8-2.68.79-1.84,1.93-3.27,3.41-4.23,1.48-.96,3.3-1.45,5.42-1.45,2.73,0,4.93.79,6.54,2.34,1.6,1.55,2.52,3.59,2.72,6.06l.03.37h-19.01l.08-.41ZM156.33,24.1c-1.35,2.83-2.03,5.95-2.03,9.26s.74,6.3,2.21,9.18c1.47,2.87,3.61,5.23,6.37,6.99,2.76,1.77,6.1,2.66,9.95,2.66h11.12v-6.81h-11.12c-2.12,0-4.02-.52-5.64-1.56-1.62-1.03-2.88-2.48-3.74-4.29-.47-1-.82-2.14-1.04-3.39l-.07-.4h27.47v-3.97c-.1-2.79-.77-5.69-1.99-8.14-1.32-2.65-3.31-4.83-5.92-6.48-2.61-1.65-5.89-2.48-9.73-2.48s-7.08.87-9.77,2.59c-2.68,1.72-4.73,4.02-6.07,6.84"/><path d="M284.64,29.1c.2-.98.46-1.89.8-2.68.79-1.84,1.93-3.27,3.41-4.23,1.48-.96,3.3-1.45,5.42-1.45,2.73,0,4.93.79,6.54,2.34,1.6,1.55,2.52,3.59,2.72,6.06l.03.37h-19.01l.08-.41ZM278.44,24.1c-1.35,2.83-2.03,5.95-2.03,9.26s.74,6.3,2.21,9.18c1.46,2.87,3.61,5.23,6.37,6.99,2.76,1.77,6.1,2.66,9.95,2.66h11.12v-6.81h-11.12c-2.12,0-4.02-.52-5.64-1.56-1.62-1.03-2.88-2.48-3.74-4.29-.48-1-.82-2.14-1.04-3.39l-.07-.4h27.47v-3.97c-.1-2.79-.77-5.69-1.99-8.14-1.32-2.65-3.31-4.83-5.92-6.48-2.61-1.65-5.89-2.48-9.73-2.48s-7.08.87-9.77,2.59c-2.68,1.72-4.73,4.02-6.07,6.84"/></g></svg>